# xmcd CD database file
#
# Track frame offsets:
#	150
#	14623
#	31108
#	46600
#	61390
#	81810
#	102595
#	121888
#	142100
#	162000
#
# Disc length: 2423 seconds
#
# Revision: 0
# Processed by: cddbd v1.4PL0 Copyright (c) Steve Scherf et al.
# Submitted via: CDex 1.40Beta9
#
DISCID=7b09750a
DTITLE=The Snakes - The Snakes
DYEAR=1989
DGENRE=Blues
TTITLE0=Love the Poison
TTITLE1=32/20
TTITLE2=Pay Bo Diddley
TTITLE3=Ain't No Crime
TTITLE4=Daddy's Got To Ride
TTITLE5=Walkaway
TTITLE6=The Itch
TTITLE7=Bad Thing
TTITLE8=I Didn't Take Your Woman
TTITLE9=Aberdeen
EXTD=YEAR: 1989 ID3G: 0
EXTT0=
EXTT1=
EXTT2=
EXTT3=
EXTT4=
EXTT5=
EXTT6=
EXTT7=
EXTT8=
EXTT9=
PLAYORDER=
